<?xml version="1.0" encoding="UTF-8"?>
<svg id="Layer_1" data-name="Layer 1" xmlns="http://www.w3.org/2000/svg" xmlns:xlink="http://www.w3.org/1999/xlink" viewBox="0 0 1440 1520">
  <defs>
    <style>
      .cls-1 {
        clip-path: url(#clippath);
      }

      .cls-2 {
        fill: none;
      }

      .cls-2, .cls-3 {
        stroke-width: 0px;
      }
    </style>
    <clipPath id="clippath">
      <rect class="cls-2" x="-337" y="0" width="2110" height="1657"/>
    </clipPath>
  </defs>
  <g class="cls-1">
    <path class="cls-3" d="M1518.35,971.27l-200.19,6.95v-37.3l-78.56-22.57h-46.16l-79.06,24.04,2.45,41.22-68.23,2.7v-12.17l-8.28.24v11.45l-2.43.24v-11.69h-8.53v12.68h-2.43v-12.42l-8.28.24v12.68l-25.11.72v-10.97l-10.23.24v-2.93l-7.08.24v-34.36h-7.32v42.64l-7.08-.24v-12.68h-6.09v12.18h-6.57v-6.09l-6.09.24v14.94h-19.17v-39.44h-34.93l-67.44-177.79c-.51-13.98,9.56-15.16,9.56-15.16l-2.5-13.07-17.31-7.12c-14.71-44.97-34.62-209.31-34.62-209.31l-26.58-322.62c-2.72-24.18,8.33-39.36,8.33-39.36v-17.59l-6.64-6.64-22.68-40.23L720.01-.07l-7.54,103.42-19.26,38.93-7.13,5.44,1.69,21.78c10.06,16.34,7.97,38.93,7.97,38.93,0,0-13.15,218.89-18.95,321.49-5.8,102.6-29.33,213.07-29.33,213.07l-17.07,5.68-2.84,10.66c12.81,5.68,12.09,18.48,12.09,18.48l-65.46,179.88h-29.18v18.48l-2.84,6.4,5.68,8.54v14.22l-33.15.16-.96,5.08-80.54.96-4.31-12.2,2.91-2.36,3.76-6.23,3.76-9.29,4.72-4.02,2.77-7.89c-16.52-1.66-22.05-9.14-23.16-13.31-1.11-4.16,4.43-7.34,4.43-7.34-.84-6.52-5.68-13.16-5.68-13.16l3.2-4.02c4.72-16.51-13.96-27.86-13.96-27.86l-.92-16.36-.19,16.43c-20.22,12.27-13.24,27.67-13.24,27.67l3.15,4.88c-5.8,9.58-4.48,13.86-4.48,13.86,3.47,1.23,5.61,4.28,4.6,5.99-8.26,16.29-23.09,14.34-23.09,14.34l2.91,7.77,5.1,3.15.72,6.81,5.34,3.9,1.71,4.86,3.73,3.3-2.7,12.1h-22.2l-.67-18.82h-16.13v12.78h-21.52v-20.16h-10.09v20.16l-41.03.67v22.19h-90.09v-20.84h-29.42v20.19h-19.57v-29.33h-26.56l-.7,12.56h-32.14l-.7,16.07h-9.08v-13.26h-6.98v-14.68h-29.35v16.08l-34.24,3.49v-8.38l-22.37,2.1.7-16.12-319.15,87.22v572.5H1773v-393.75l-254.65-291.98v.02ZM681.66,941.41h-23.14l32.29-119.35-9.15,119.35ZM779.02,944.1l-8.59-125.79,35.51,125.79h-26.92Z"/>
  </g>
</svg>