<?xml version="1.0" encoding="UTF-8"?>
<svg id="Layer_2" data-name="Layer 2" xmlns="http://www.w3.org/2000/svg" viewBox="0 0 1440 1520">
  <defs>
    <style>
      .cls-1 {
        fill: #edebc9;
        stroke-width: 0px;
      }
    </style>
  </defs>
  <g id="Layer_1-2" data-name="Layer 1">
    <path class="cls-1" d="M1440,1285.8l-13.23-5.31-12.61-18.91-22.69,3.79v-47.89l-46.62,7.58-6.09,19.84-50.84-46.8-34.01-3.55-22.18-6.49-32.36-49.03,2.77-23.12,25.89-.94,10.15-26.84-20.35-66.61-32.36-10.15,23.11-46.26-35.14-27.74v-18.52l-29.6-3.71-4.6-23.13-63.81-33.28-6.48-21.29-73.95-59.18,4.61-25.9-54.55-19.42-49.94-1.84v-29.61l-71.18-.94-2.77-231.23,7.38-12.93v-30.51l-2.77-85.08-8.32-108.21,25.77-17.58,131.39,14.81,26.82-27.74,1.84-42.54,60.09-12.03,22.18-14.81-28.66-9.26-16.64-11.09-36.97,11.09-236.7-14.81V43.91S768.24-.35,741.44,0h-.27c-1.33.03-2.72.17-4.18.43-44.4,5.55-49.94,26.84-49.94,26.84v73.09h-36.98l-92.46,16.64-116.47,3.71-11.09-14.81h-48.07l-8.32,11.09h-36.04l42.52,24.06h60.09l.94,36.06,12.03,19.42,21.28,11.09h76.73l64.7,16.64-1.72,119.35,17.84,25.43-.55,57.93,6.83,9.18-7.57,263.73h-80.71v32.82h-52.99l-11.36,56.8h-20.19l-13.86,17.66-21.44,85.83-30.26,44.18-35.3,8.83-40.37,35.32v29.02l-18.94,26.49,15.15,30.27h20.19v27.78l-50.45,8.83-7.57,16.95h-25.93l-19.52,50.28-120.03,41.88v78.17l-85.12,80.98,12.57,33.52-30.69,22.34,50.25,30.71L0,1520h1440v-234.2h0Z"/>
  </g>
</svg>