<?xml version="1.0" encoding="UTF-8"?>
<svg id="Layer_2" xmlns="http://www.w3.org/2000/svg" version="1.1" viewBox="0 0 1440 1520">
  <!-- Generator: Adobe Illustrator 29.0.1, SVG Export Plug-In . SVG Version: 2.1.0 Build 192)  -->
  <defs>
    <style>
      .st0 {
        fill: #0DA900;
      }
    </style>
  </defs>
  <g id="Layer_1-2">
    <path class="st0" d="M1440,1285.8l-13.2-5.3-12.6-18.9-22.7,3.8v-47.9l-46.6,7.6-6.1,19.8-50.8-46.8-34-3.6-22.2-6.5-32.4-49,2.8-23.1,25.9-.9,10.2-26.8-20.3-66.6-32.4-10.2,23.1-46.3-35.1-27.7v-18.5l-29.6-3.7-4.6-23.1-63.8-33.3-6.5-21.3-74-59.2,4.6-25.9-54.5-19.4-49.9-1.8v-29.6l-71.2-.9-2.8-231.2,7.4-12.9v-30.5l-2.8-85.1-8.3-108.2,25.8-17.6,131.4,14.8,26.8-27.7,1.8-42.5,60.1-12,22.2-14.8-28.7-9.3-16.6-11.1-37,11.1-236.7-14.8V43.9s1.7-44.3-25.1-43.9h-.3c-1.3,0-2.7.2-4.2.4-44.4,5.6-49.9,26.8-49.9,26.8v73.1h-37l-92.5,16.6-116.5,3.7-11.1-14.8h-48.1l-8.3,11.1h-36l42.5,24.1h60.1l.9,36.1,12,19.4,21.3,11.1h76.7l64.7,16.6-1.7,119.3,17.8,25.4-.5,57.9,6.8,9.2-7.6,263.7h-80.7v32.8h-53l-11.4,56.8h-20.2l-13.9,17.7-21.4,85.8-30.3,44.2-35.3,8.8-40.4,35.3v29l-18.9,26.5,15.1,30.3h20.2v27.8l-50.5,8.8-7.6,16.9h-25.9l-19.5,50.3-120,41.9v78.2l-85.1,81,12.6,33.5-30.7,22.3,50.2,30.7L0,1520h1440v-234.2h0Z"/>
  </g>
</svg>