<svg width="150" height="89" viewBox="0 0 150 89" fill="none" xmlns="http://www.w3.org/2000/svg">
<path d="M88.5207 0H51.6631V12.847H73.3557V14.4873V27.3319V73.7129H88.5207V27.3319V14.4873V12.847H110.211V0H88.5207Z" fill="#EDEBC9"/>
<path d="M112.549 65.0827L131.181 88.1978H150L122.503 52.5039L112.549 65.0827Z" fill="#EDEBC9"/>
<path d="M45.4619 58.5215H43.3643L31.6738 73.6889H56.319L56.3214 58.5239H45.4619V58.5215Z" fill="#EDEBC9"/>
<path d="M56.2659 14.4873L31.5201 46.8144V46.8407L0 88.1882L18.2851 88.1978L31.5201 71.0333L44.1731 54.6184L55.423 40.0305L56.3209 38.8619V58.524V73.7129V88.1978H71.4859V73.7129V27.3319H71.4907V19.1879V14.4873H56.2659Z" fill="#EDEBC9"/>
<path d="M130.503 14.4873L105.759 46.8144V43.699V14.4873H93.1783H90.3838V27.3319V43.699V73.7129V88.1978H105.759V75.4849V73.7129V71.0333L149.353 14.4873H130.503Z" fill="#EDEBC9"/>
</svg>
