<svg width="543" height="562" viewBox="0 0 543 562" fill="none" xmlns="http://www.w3.org/2000/svg">
<path fill-rule="evenodd" clip-rule="evenodd" d="M272.5 558C410.295 558 522 446.295 522 308.5C522 170.705 410.295 59 272.5 59C134.705 59 23 170.705 23 308.5C23 446.295 134.705 558 272.5 558ZM272.5 562C412.504 562 526 448.504 526 308.5C526 168.496 412.504 55 272.5 55C132.496 55 19 168.496 19 308.5C19 448.504 132.496 562 272.5 562Z" fill="black"/>
<path d="M335 63C335 97.7939 306.794 126 272 126C237.206 126 209 97.7939 209 63C209 28.2061 237.206 0 272 0C306.794 0 335 28.2061 335 63Z" fill="#EDEBC9"/>
<path fill-rule="evenodd" clip-rule="evenodd" d="M272 122C304.585 122 331 95.5848 331 63C331 30.4152 304.585 4 272 4C239.415 4 213 30.4152 213 63C213 95.5848 239.415 122 272 122ZM272 126C306.794 126 335 97.7939 335 63C335 28.2061 306.794 0 272 0C237.206 0 209 28.2061 209 63C209 97.7939 237.206 126 272 126Z" fill="black"/>
<path d="M126 456C126 490.794 97.7939 519 63 519C28.2061 519 0 490.794 0 456C0 421.206 28.2061 393 63 393C97.7939 393 126 421.206 126 456Z" fill="#EDEBC9"/>
<path fill-rule="evenodd" clip-rule="evenodd" d="M63 515C95.5848 515 122 488.585 122 456C122 423.415 95.5848 397 63 397C30.4152 397 4 423.415 4 456C4 488.585 30.4152 515 63 515ZM63 519C97.7939 519 126 490.794 126 456C126 421.206 97.7939 393 63 393C28.2061 393 0 421.206 0 456C0 490.794 28.2061 519 63 519Z" fill="black"/>
<path d="M543 456C543 490.794 514.794 519 480 519C445.206 519 417 490.794 417 456C417 421.206 445.206 393 480 393C514.794 393 543 421.206 543 456Z" fill="#EDEBC9"/>
<path fill-rule="evenodd" clip-rule="evenodd" d="M480 515C512.585 515 539 488.585 539 456C539 423.415 512.585 397 480 397C447.415 397 421 423.415 421 456C421 488.585 447.415 515 480 515ZM480 519C514.794 519 543 490.794 543 456C543 421.206 514.794 393 480 393C445.206 393 417 421.206 417 456C417 490.794 445.206 519 480 519Z" fill="black"/>
</svg>
