<svg width="675" height="798" viewBox="0 0 675 798" fill="none" xmlns="http://www.w3.org/2000/svg">
<path d="M0 337.5C0 151.104 151.104 0 337.5 0C523.896 0 675 151.104 675 337.5V460.5C675 646.896 523.896 798 337.5 798C151.104 798 0 646.896 0 460.5V337.5Z" fill="black"/>
<path d="M348.108 703.662C343.012 703.069 339.053 698.819 338.688 693.546L338 680L337.317 693.546C336.952 698.819 332.988 703.074 327.897 703.662L325.005 704L327.897 704.338C332.993 704.931 336.952 709.181 337.317 714.454L338 728L338.683 714.454C339.048 709.181 343.012 704.926 348.103 704.338L350.995 704L348.103 703.662H348.108Z" fill="#EDEBC9"/>
<path d="M348.108 93.6623C343.012 93.0689 339.053 88.8189 338.688 83.5461L338 70L337.317 83.5461C336.952 88.8189 332.988 93.0738 327.897 93.6623L325.005 94L327.897 94.3377C332.993 94.9311 336.952 99.1811 337.317 104.454L338 118L338.683 104.454C339.048 99.1811 343.012 94.9262 348.103 94.3377L350.995 94L348.103 93.6623H348.108Z" fill="#EDEBC9"/>
<path d="M20 337.5C20 162.15 162.15 20 337.5 20V16C159.94 16 16 159.94 16 337.5V460.5H20V337.5Z" fill="#EDEBC9"/>
<path d="M655 337.5V460.5C655 635.85 512.85 778 337.5 778V782C515.06 782 659 638.06 659 460.5V337.5H655Z" fill="#EDEBC9"/>
</svg>
