<svg width="33" height="33" viewBox="0 0 33 33" fill="none" xmlns="http://www.w3.org/2000/svg">
<g clip-path="url(#clip0_161_781)">
<path d="M16.5 0L16.7406 10.5893C16.8093 13.6919 19.3081 16.1907 22.4107 16.2594L33 16.5L22.4107 16.7406C19.3081 16.8093 16.8093 19.3081 16.7406 22.4107L16.5 33L16.2594 22.4107C16.1907 19.3081 13.6919 16.8093 10.5893 16.7406L0 16.5L10.5893 16.2594C13.6919 16.1907 16.1907 13.6919 16.2594 10.5893L16.5 0Z" fill="black"/>
<path d="M28.1696 4.83057L20.8549 12.489C18.7095 14.7325 18.7095 18.2672 20.8549 20.5107L28.1696 28.1692L20.5112 20.8544C18.2677 18.709 14.733 18.709 12.4895 20.8544L4.83105 28.1692L12.1458 20.5107C14.2912 18.2672 14.2912 14.7325 12.1458 12.489L4.83105 4.83057L12.4895 12.1454C14.733 14.2907 18.2677 14.2907 20.5112 12.1454L28.1696 4.83057Z" fill="black"/>
</g>
<defs>
<clipPath id="clip0_161_781">
<rect width="33" height="33" fill="white"/>
</clipPath>
</defs>
</svg>
